<?xml version="1.0" encoding="utf-8" standalone="no"?>
<!DOCTYPE svg PUBLIC "-//W3C//DTD SVG 1.1//EN"
  "http://www.w3.org/Graphics/SVG/1.1/DTD/svg11.dtd">
<svg xmlns:xlink="http://www.w3.org/1999/xlink" width="432pt" height="216pt" viewBox="0 0 432 216" xmlns="http://www.w3.org/2000/svg" version="1.1">
 <metadata>
  <rdf:RDF xmlns:dc="http://purl.org/dc/elements/1.1/" xmlns:cc="http://creativecommons.org/ns#" xmlns:rdf="http://www.w3.org/1999/02/22-rdf-syntax-ns#">
   <cc:Work>
    <dc:type rdf:resource="http://purl.org/dc/dcmitype/StillImage"/>
    <dc:date>2025-04-09T07:18:19.339027</dc:date>
    <dc:format>image/svg+xml</dc:format>
    <dc:creator>
     <cc:Agent>
      <dc:title>Matplotlib v3.5.2, https://matplotlib.org/</dc:title>
     </cc:Agent>
    </dc:creator>
   </cc:Work>
  </rdf:RDF>
 </metadata>
 <defs>
  <style type="text/css">*{stroke-linejoin: round; stroke-linecap: butt}</style>
 </defs>
 <g id="figure_1">
  <g id="patch_1">
   <path d="M 0 216 
L 432 216 
L 432 0 
L 0 0 
z
" style="fill: #ffffff"/>
  </g>
  <g id="axes_1">
   <g id="patch_2">
    <path d="M 287.928 109.08 
C 287.928 100.343623 286.207124 91.692196 282.863858 83.620837 
C 279.520591 75.549477 274.619951 68.215151 268.4424 62.0376 
C 262.264849 55.860049 254.930523 50.959409 246.859163 47.616142 
C 238.787804 44.272876 230.136377 42.552 221.4 42.552 
C 212.663623 42.552 204.012196 44.272876 195.940837 47.616142 
C 187.869477 50.959409 180.535151 55.860049 174.3576 62.0376 
C 168.180049 68.215151 163.279409 75.549477 159.936142 83.620837 
C 156.592876 91.692196 154.872 100.343623 154.872 109.08 
C 154.872 117.816377 156.592876 126.467804 159.936142 134.539163 
C 163.279409 142.610523 168.180049 149.944849 174.3576 156.1224 
C 180.535151 162.299951 187.869477 167.200591 195.940837 170.543858 
C 204.012196 173.887124 212.663623 175.608 221.4 175.608 
C 230.136377 175.608 238.787804 173.887124 246.859163 170.543858 
C 254.930523 167.200591 262.264849 162.299951 268.4424 156.1224 
C 274.619951 149.944849 279.520591 142.610523 282.863858 134.539163 
C 286.207124 126.467804 287.928 117.816377 287.928 109.08 
M 267.9696 109.08 
C 267.9696 115.195464 266.764987 121.251462 264.4247 126.901414 
C 262.084414 132.551366 258.653966 137.685394 254.32968 142.00968 
C 250.005394 146.333966 244.871366 149.764414 239.221414 152.1047 
C 233.571462 154.444987 227.515464 155.6496 221.4 155.6496 
C 215.284536 155.6496 209.228538 154.444987 203.578586 152.1047 
C 197.928634 149.764414 192.794606 146.333966 188.47032 142.00968 
C 184.146034 137.685394 180.715586 132.551366 178.3753 126.901414 
C 176.035013 121.251462 174.8304 115.195464 174.8304 109.08 
C 174.8304 102.964536 176.035013 96.908538 178.3753 91.258586 
C 180.715586 85.608634 184.146034 80.474606 188.47032 76.15032 
C 192.794606 71.826034 197.928634 68.395586 203.578586 66.0553 
C 209.228538 63.715013 215.284536 62.5104 221.4 62.5104 
C 227.515464 62.5104 233.571462 63.715013 239.221414 66.0553 
C 244.871366 68.395586 250.005394 71.826034 254.32968 76.15032 
C 258.653966 80.474606 262.084414 85.608634 264.4247 91.258586 
C 266.764987 96.908538 267.9696 102.964536 267.9696 109.08 
M 287.928 109.08 
z
" style="fill: #1f77b4"/>
   </g>
   <g id="patch_3">
    <path d="M 221.4 42.552 
C 221.4 42.552 221.4 42.552 221.4 42.552 
L 221.4 62.5104 
C 221.4 62.5104 221.4 62.5104 221.4 62.5104 
L 221.4 42.552 
z
" style="fill: #ff7f0e"/>
   </g>
   <g id="matplotlib.axis_1"/>
   <g id="matplotlib.axis_2"/>
   <g id="text_1">
    <!-- Resilient plots -->
    <g transform="translate(151.240625 185.020175)scale(0.1 -0.1)">
     <defs>
      <path id="DejaVuSans-52" d="M 2841 2188 
Q 3044 2119 3236 1894 
Q 3428 1669 3622 1275 
L 4263 0 
L 3584 0 
L 2988 1197 
Q 2756 1666 2539 1819 
Q 2322 1972 1947 1972 
L 1259 1972 
L 1259 0 
L 628 0 
L 628 4666 
L 2053 4666 
Q 2853 4666 3247 4331 
Q 3641 3997 3641 3322 
Q 3641 2881 3436 2590 
Q 3231 2300 2841 2188 
z
M 1259 4147 
L 1259 2491 
L 2053 2491 
Q 2509 2491 2742 2702 
Q 2975 2913 2975 3322 
Q 2975 3731 2742 3939 
Q 2509 4147 2053 4147 
L 1259 4147 
z
" transform="scale(0.015625)"/>
      <path id="DejaVuSans-65" d="M 3597 1894 
L 3597 1613 
L 953 1613 
Q 991 1019 1311 708 
Q 1631 397 2203 397 
Q 2534 397 2845 478 
Q 3156 559 3463 722 
L 3463 178 
Q 3153 47 2828 -22 
Q 2503 -91 2169 -91 
Q 1331 -91 842 396 
Q 353 884 353 1716 
Q 353 2575 817 3079 
Q 1281 3584 2069 3584 
Q 2775 3584 3186 3129 
Q 3597 2675 3597 1894 
z
M 3022 2063 
Q 3016 2534 2758 2815 
Q 2500 3097 2075 3097 
Q 1594 3097 1305 2825 
Q 1016 2553 972 2059 
L 3022 2063 
z
" transform="scale(0.015625)"/>
      <path id="DejaVuSans-73" d="M 2834 3397 
L 2834 2853 
Q 2591 2978 2328 3040 
Q 2066 3103 1784 3103 
Q 1356 3103 1142 2972 
Q 928 2841 928 2578 
Q 928 2378 1081 2264 
Q 1234 2150 1697 2047 
L 1894 2003 
Q 2506 1872 2764 1633 
Q 3022 1394 3022 966 
Q 3022 478 2636 193 
Q 2250 -91 1575 -91 
Q 1294 -91 989 -36 
Q 684 19 347 128 
L 347 722 
Q 666 556 975 473 
Q 1284 391 1588 391 
Q 1994 391 2212 530 
Q 2431 669 2431 922 
Q 2431 1156 2273 1281 
Q 2116 1406 1581 1522 
L 1381 1569 
Q 847 1681 609 1914 
Q 372 2147 372 2553 
Q 372 3047 722 3315 
Q 1072 3584 1716 3584 
Q 2034 3584 2315 3537 
Q 2597 3491 2834 3397 
z
" transform="scale(0.015625)"/>
      <path id="DejaVuSans-69" d="M 603 3500 
L 1178 3500 
L 1178 0 
L 603 0 
L 603 3500 
z
M 603 4863 
L 1178 4863 
L 1178 4134 
L 603 4134 
L 603 4863 
z
" transform="scale(0.015625)"/>
      <path id="DejaVuSans-6c" d="M 603 4863 
L 1178 4863 
L 1178 0 
L 603 0 
L 603 4863 
z
" transform="scale(0.015625)"/>
      <path id="DejaVuSans-6e" d="M 3513 2113 
L 3513 0 
L 2938 0 
L 2938 2094 
Q 2938 2591 2744 2837 
Q 2550 3084 2163 3084 
Q 1697 3084 1428 2787 
Q 1159 2491 1159 1978 
L 1159 0 
L 581 0 
L 581 3500 
L 1159 3500 
L 1159 2956 
Q 1366 3272 1645 3428 
Q 1925 3584 2291 3584 
Q 2894 3584 3203 3211 
Q 3513 2838 3513 2113 
z
" transform="scale(0.015625)"/>
      <path id="DejaVuSans-74" d="M 1172 4494 
L 1172 3500 
L 2356 3500 
L 2356 3053 
L 1172 3053 
L 1172 1153 
Q 1172 725 1289 603 
Q 1406 481 1766 481 
L 2356 481 
L 2356 0 
L 1766 0 
Q 1100 0 847 248 
Q 594 497 594 1153 
L 594 3053 
L 172 3053 
L 172 3500 
L 594 3500 
L 594 4494 
L 1172 4494 
z
" transform="scale(0.015625)"/>
      <path id="DejaVuSans-20" transform="scale(0.015625)"/>
      <path id="DejaVuSans-70" d="M 1159 525 
L 1159 -1331 
L 581 -1331 
L 581 3500 
L 1159 3500 
L 1159 2969 
Q 1341 3281 1617 3432 
Q 1894 3584 2278 3584 
Q 2916 3584 3314 3078 
Q 3713 2572 3713 1747 
Q 3713 922 3314 415 
Q 2916 -91 2278 -91 
Q 1894 -91 1617 61 
Q 1341 213 1159 525 
z
M 3116 1747 
Q 3116 2381 2855 2742 
Q 2594 3103 2138 3103 
Q 1681 3103 1420 2742 
Q 1159 2381 1159 1747 
Q 1159 1113 1420 752 
Q 1681 391 2138 391 
Q 2594 391 2855 752 
Q 3116 1113 3116 1747 
z
" transform="scale(0.015625)"/>
      <path id="DejaVuSans-6f" d="M 1959 3097 
Q 1497 3097 1228 2736 
Q 959 2375 959 1747 
Q 959 1119 1226 758 
Q 1494 397 1959 397 
Q 2419 397 2687 759 
Q 2956 1122 2956 1747 
Q 2956 2369 2687 2733 
Q 2419 3097 1959 3097 
z
M 1959 3584 
Q 2709 3584 3137 3096 
Q 3566 2609 3566 1747 
Q 3566 888 3137 398 
Q 2709 -91 1959 -91 
Q 1206 -91 779 398 
Q 353 888 353 1747 
Q 353 2609 779 3096 
Q 1206 3584 1959 3584 
z
" transform="scale(0.015625)"/>
     </defs>
     <use xlink:href="#DejaVuSans-52"/>
     <use xlink:href="#DejaVuSans-65" x="64.982422"/>
     <use xlink:href="#DejaVuSans-73" x="126.505859"/>
     <use xlink:href="#DejaVuSans-69" x="178.605469"/>
     <use xlink:href="#DejaVuSans-6c" x="206.388672"/>
     <use xlink:href="#DejaVuSans-69" x="234.171875"/>
     <use xlink:href="#DejaVuSans-65" x="261.955078"/>
     <use xlink:href="#DejaVuSans-6e" x="323.478516"/>
     <use xlink:href="#DejaVuSans-74" x="386.857422"/>
     <use xlink:href="#DejaVuSans-20" x="426.066406"/>
     <use xlink:href="#DejaVuSans-70" x="457.853516"/>
     <use xlink:href="#DejaVuSans-6c" x="521.330078"/>
     <use xlink:href="#DejaVuSans-6f" x="549.113281"/>
     <use xlink:href="#DejaVuSans-74" x="610.294922"/>
     <use xlink:href="#DejaVuSans-73" x="649.503906"/>
    </g>
   </g>
   <g id="text_2">
    <!-- Dying plots -->
    <g transform="translate(221.4 38.658575)scale(0.1 -0.1)">
     <defs>
      <path id="DejaVuSans-44" d="M 1259 4147 
L 1259 519 
L 2022 519 
Q 2988 519 3436 956 
Q 3884 1394 3884 2338 
Q 3884 3275 3436 3711 
Q 2988 4147 2022 4147 
L 1259 4147 
z
M 628 4666 
L 1925 4666 
Q 3281 4666 3915 4102 
Q 4550 3538 4550 2338 
Q 4550 1131 3912 565 
Q 3275 0 1925 0 
L 628 0 
L 628 4666 
z
" transform="scale(0.015625)"/>
      <path id="DejaVuSans-79" d="M 2059 -325 
Q 1816 -950 1584 -1140 
Q 1353 -1331 966 -1331 
L 506 -1331 
L 506 -850 
L 844 -850 
Q 1081 -850 1212 -737 
Q 1344 -625 1503 -206 
L 1606 56 
L 191 3500 
L 800 3500 
L 1894 763 
L 2988 3500 
L 3597 3500 
L 2059 -325 
z
" transform="scale(0.015625)"/>
      <path id="DejaVuSans-67" d="M 2906 1791 
Q 2906 2416 2648 2759 
Q 2391 3103 1925 3103 
Q 1463 3103 1205 2759 
Q 947 2416 947 1791 
Q 947 1169 1205 825 
Q 1463 481 1925 481 
Q 2391 481 2648 825 
Q 2906 1169 2906 1791 
z
M 3481 434 
Q 3481 -459 3084 -895 
Q 2688 -1331 1869 -1331 
Q 1566 -1331 1297 -1286 
Q 1028 -1241 775 -1147 
L 775 -588 
Q 1028 -725 1275 -790 
Q 1522 -856 1778 -856 
Q 2344 -856 2625 -561 
Q 2906 -266 2906 331 
L 2906 616 
Q 2728 306 2450 153 
Q 2172 0 1784 0 
Q 1141 0 747 490 
Q 353 981 353 1791 
Q 353 2603 747 3093 
Q 1141 3584 1784 3584 
Q 2172 3584 2450 3431 
Q 2728 3278 2906 2969 
L 2906 3500 
L 3481 3500 
L 3481 434 
z
" transform="scale(0.015625)"/>
     </defs>
     <use xlink:href="#DejaVuSans-44"/>
     <use xlink:href="#DejaVuSans-79" x="77.001953"/>
     <use xlink:href="#DejaVuSans-69" x="136.181641"/>
     <use xlink:href="#DejaVuSans-6e" x="163.964844"/>
     <use xlink:href="#DejaVuSans-67" x="227.34375"/>
     <use xlink:href="#DejaVuSans-20" x="290.820312"/>
     <use xlink:href="#DejaVuSans-70" x="322.607422"/>
     <use xlink:href="#DejaVuSans-6c" x="386.083984"/>
     <use xlink:href="#DejaVuSans-6f" x="413.867188"/>
     <use xlink:href="#DejaVuSans-74" x="475.048828"/>
     <use xlink:href="#DejaVuSans-73" x="514.257812"/>
    </g>
   </g>
  </g>
 </g>
</svg>
